# AST/ASF file generated using VICON BodyLanguage
# -----------------------------------------------
:version 1.10
:name VICON
:units
  mass 1.0
  length 0.45
  angle deg
:documentation
   .ast/.asf automatically generated from VICON data using
   VICON BodyBuilder and BodyLanguage model FoxedUp or BRILLIANT.MOD
:root
   order TX TY TZ RX RY RZ
   axis XYZ
   position 0 0 0  
   orientation 0 0 0 
:bonedata
  begin
     id 1 
     name lhipjoint
     direction 0.650112 -0.723553 0.232005 
     length 2.45805 
     axis 0 0 0  XYZ
  end
  begin
     id 2 
     name lfemur
     direction 0.34202 -0.939693 0  
     length 7.00073  
     axis 0 0 20  XYZ
    dof rx ry rz
    limits (-160.0 20.0)
           (-70.0 70.0)
           (-60.0 70.0)
  end
  begin
     id 3 
     name ltibia
     direction 0.34202 -0.939693 0   
     length 7.8748   
     axis 0 0 20   XYZ
    dof rx
    limits (-10.0 170.0)
  end
  begin
     id 4 
     name lfoot
     direction 0.0542825 -0.14914 0.987325   
     length 1.75978   
     axis -90 7.62852e-016 20   XYZ
    dof rx rz
    limits (-45.0 90.0)
           (-70.0 20.0)
  end
  begin
     id 5 
     name ltoes
     direction 1.53509e-011 -4.21906e-011 1   
     length 0.893912   
     axis -90 7.62852e-016 20   XYZ
    dof rx
    limits (-90.0 20.0)
  end
  begin
     id 6 
     name rhipjoint
     direction -0.637897 -0.733345 0.235145   
     length 2.42522  
     axis 0 0 0  XYZ 
  end
  begin
     id 7 
     name rfemur
     direction -0.34202 -0.939693 0   
     length 7.02549   
     axis 0 0 -20   XYZ
    dof rx ry rz
    limits (-160.0 20.0)
           (-70.0 70.0)
           (-70.0 60.0)
  end
  begin
     id 8 
     name rtibia
     direction -0.34202 -0.939693 0   
     length 7.71512   
     axis 0 0 -20   XYZ
    dof rx
    limits (-10.0 170.0)
 end
 begin
     id 9 
     name rfoot
     direction -0.0822618 -0.226012 0.970645   
     length 1.90014  
     axis -90 -7.62852e-016 -20   XYZ
    dof rx rz
    limits (-45.0 90.0)
           (-20.0 70.0)
  end
  begin
     id 10 
     name rtoes
     direction -1.53542e-011 -4.21872e-011 1   
     length 0.957341   
     axis -90 -7.62852e-016 -20   XYZ
    dof rx
    limits (-90.0 20.0)
  end
  begin
     id 11 
     name lowerback
     direction -0.0022947 0.999774 -0.0211557   
     length 1.89909   
     axis 0 0 0   XYZ
    dof rx ry rz
    limits (-20.0 45.0)
           (-30.0 30.0)
           (-30.0 30.0)
  end
  begin
     id 12 
     name upperback
     direction 0.0107737 0.998635 0.0511027   
     length 1.8853   
     axis 0 0 0   XYZ
    dof rx ry rz
    limits (-20.0 45.0)
           (-30.0 30.0)
           (-30.0 30.0)
  end
  begin
     id 13 
     name thorax
     direction 0.011824 0.998136 0.0598754   
     length 1.88911   
     axis 0 0 0   XYZ
    dof rx ry rz
    limits (-20.0 45.0)
           (-30.0 30.0)
           (-30.0 30.0)
  end
  begin
     id 14 
     name lowerneck
     direction -0.0685355 0.990319 0.120714   
     length 1.91222   
     axis 0 0 0   XYZ
    dof rx ry rz
    limits (-20.0 45.0)
           (-30.0 30.0)
           (-30.0 30.0)
  end
  begin
     id 15 
     name upperneck
     direction 0.0886204 0.955665 -0.280805   
     length 1.92526   
     axis 0 0 0   XYZ
    dof rx ry rz
    limits (-20.0 45.0)
           (-30.0 30.0)
           (-30.0 30.0)
  end
  begin
     id 16
     name head
     direction 0.0233423 0.993502 -0.111393  
     length 1.96056  
     axis 0 0 0   XYZ
    dof rx ry rz
    limits (-20.0 45.0)
           (-30.0 30.0)
           (-30.0 30.0)
  end
  begin
     id 17 
     name lclavicle
     direction 0.941873 0.32922 0.0670041  
     length 3.31705  
     axis 0 0 0   XYZ
    dof ry rz
    limits (-20.0 10.0)
           (0.0 20.0)
  end
  begin
     id 18 
     name lhumerus
     direction 1 -4.4898e-011 3.38707e-028   
     length 5.29277   
     axis 180 -30 -90   XYZ
    dof rx ry rz
    limits (-60.0 90.0)
           (-90.0 90.0)
           (-90.0 90.0)
  end
  begin
     id 19
     name lradius
     direction 1 -4.48952e-011 1.63213e-028   
     length 2.85226   
     axis 180 -30 -90   XYZ
    dof rx
    limits (-10.0 170.0)
  end
  begin
     id 20
     name lwrist
     direction 1 -4.49001e-011 1.27856e-027   
     length 1.42613   
     axis -1.61767e-015 90 90   XYZ
    dof ry
    limits (-180.0 0.0)
 end
  begin
     id 21 
     name lhand
     direction 1 -4.48976e-011 2.55931e-027   
     length 0.602097   
     axis -1.63363e-015 90 90   XYZ
    dof rx rz
    limits (-90.0 90.0)
           (-45.0 45.0)
  end
  begin
     id 22 
     name lfingers
     direction 1 -4.48986e-011 5.11684e-027   
     length 0.485426   
     axis -3.26723e-015 90 90   XYZ
    dof rx
    limits (0.0 90.0)
  end
  begin
     id 23
     name lthumb
     direction 0.707107 -6.34915e-011 0.707107   
     length 0.696978   
     axis -90 45 -2.25915e-014   XYZ
    dof rx rz
    limits (-45.0 45.0)
           (-45.0 45.0)
  end
  begin
     id 24 
     name rclavicle
     direction -0.939974 0.327078 0.0973096   
     length 3.10337  
     axis 0 0 0   XYZ 
    dof ry rz
    limits (-10.0 20.0)
           (-20.0 0.0)
  end
  begin
     id 25 
     name rhumerus
     direction -1 -4.48975e-011 1.83745e-027  
     length 5.13304   
     axis 180 30 90   XYZ
    dof rx ry rz
    limits (-90.0 60.0)
           (-90.0 90.0)
           (-90.0 90.0)
  end
  begin
     id 26 
     name rradius
     direction -1 -4.48977e-011 7.1775e-029   
     length 2.74305   
     axis 180 30 90   XYZ
    dof rx
    limits (-10.0 170.0)
  end
  begin
     id 27 
     name rwrist
     direction -1 -4.48977e-011 1.27963e-027   
     length 1.37152   
     axis -1.61767e-015 -90 -90   XYZ
    dof ry
    limits (-180.0 0.0)
  end
  begin
     id 28
     name rhand
     direction -1 -4.4888e-011 2.56782e-027   
     length 0.767976   
     axis -1.63363e-015 -90 -90   XYZ
    dof rx rz
    limits (-90.0 90.0)
           (-45.0 45.0)
  end
  begin
     id 29
     name rfingers
     direction -1 -4.48947e-011 5.12384e-027   
     length 0.619162   
     axis -3.26723e-015 -90 -90   XYZ
    dof rx
    limits (0.0 90.0)
  end
  begin
     id 30
     name rthumb
     direction -0.707107 -6.34857e-011 0.707107   
     length 0.888997   
     axis -90 -45 2.25915e-014   XYZ
    dof rx rz
    limits (-45.0 45.0)
           (-45.0 45.0)
  end
:hierarchy
  begin
    root lhipjoint rhipjoint lowerback
    lhipjoint lfemur
    lfemur ltibia
    ltibia lfoot
    lfoot ltoes
    rhipjoint rfemur
    rfemur rtibia
    rtibia rfoot
    rfoot rtoes
    lowerback upperback
    upperback thorax
    thorax lowerneck lclavicle rclavicle
    lowerneck upperneck
    upperneck head
    lclavicle lhumerus
    lhumerus lradius
    lradius lwrist
    lwrist lhand lthumb
    lhand lfingers
    rclavicle rhumerus
    rhumerus rradius
    rradius rwrist
    rwrist rhand rthumb
    rhand rfingers
  end

#!OML:ASF F:\VICON\USERDATA\INSTALL\rory3\rory3.ASF
:FULLY-SPECIFIED
:DEGREES
725
root -0.0879432 17.3957 -0.864068 34.1313 -15.5539 -3.44493
lowerback 17.9712 0.0274022 -8.92483
upperback 1.78641 -2.31963 -6.29479
thorax -8.09421 -0.935269 -1.21012
lowerneck -5.00921 -5.93043 -17.1282
upperneck -5.4487 -6.91102 24.8943
head 0.961169 -3.35327 10.5502
rclavicle -1.90833e-014 2.70347e-014
rhumerus -81.461 -38.3863 26.0061
rradius 27.4218
rwrist 42.6551
rhand -11.5876 6.14138
rfingers 7.12502
rthumb 14.4544 -23.3352
lclavicle -1.90833e-014 2.70347e-014
lhumerus -39.3664 13.8518 13.1081
lradius 27.4357
lwrist 26.1793
lhand -7.82708 34.9334
lfingers 7.12502
lthumb 18.0752 64.1135
rfemur -43.1592 16.8139 11.3361
rtibia 13.2391
rfoot -4.86438 -6.05965
rtoes -25.7588
lfemur -42.4888 -6.463 -9.41597
ltibia 25.2623
lfoot -17.4027 19.7374
ltoes -7.92323
726
root -0.104177 17.396 -0.864801 34.2445 -15.4019 -3.52992
lowerback 17.9619 0.03915 -8.98765
upperback 1.79665 -2.32453 -6.40451
thorax -8.08072 -0.938154 -1.29404
lowerneck -4.7162 -5.98591 -17.2904
upperneck -5.89346 -6.95419 25.0003
head 0.809882 -3.40393 10.6303
rclavicle -3.18055e-015 -3.02153e-014
rhumerus -81.965 -38.4919 26.8858
rradius 27.2056
rwrist 43.6482
rhand -11.66 6.68754
rfingers 7.12502
rthumb 14.3846 -22.794
lclavicle -3.18055e-015 -3.02153e-014
lhumerus -39.3755 14.037 13.0739
lradius 27.568
lwrist 26.4243
lhand -7.91369 35.136
lfingers 7.12502
lthumb 17.9919 64.3238
rfemur -43.1765 16.7984 11.4663
rtibia 13.0757
rfoot -4.7795 -6.05698
rtoes -25.433
lfemur -42.5946 -6.51613 -9.17159
ltibia 25.2621
lfoot -16.9493 20.0401
ltoes -10.6539
727
root -0.121666 17.3959 -0.866285 34.3625 -15.2875 -3.59032
lowerback 17.9269 0.0482858 -9.16633
upperback 1.84005 -2.34786 -6.51225
thorax -8.01111 -0.9481 -1.30655
lowerneck -4.89742 -6.06732 -17.4164
upperneck -5.94464 -7.03292 25.1262
head 0.857776 -3.43316 10.6887
rclavicle 1.11319e-014 3.18055e-014
rhumerus -82.1669 -38.6471 27.3677
rradius 26.9702
rwrist 44.3103
rhand -11.6604 6.91797
rfingers 7.12502
rthumb 14.3843 -22.5636
lclavicle 1.11319e-014 3.18055e-014
lhumerus -39.4373 14.4101 12.9638
lradius 27.6445
lwrist 26.613
lhand -8.05673 35.2135
lfingers 7.12502
lthumb 17.8543 64.4139
rfemur -43.2161 16.8119 11.565
rtibia 12.951
rfoot -4.74322 -6.10341
rtoes -25.425
lfemur -42.715 -6.51617 -8.98487
ltibia 25.2654
lfoot -16.7194 20.1403
ltoes -11.7993
728
root -0.140339 17.3955 -0.866125 34.409 -15.1634 -3.61635
lowerback 17.9773 0.0642848 -9.37604
upperback 1.87526 -2.38226 -6.62986
thorax -7.99659 -0.960577 -1.3102
lowerneck -5.30682 -6.07277 -17.5392
upperneck -5.65858 -7.02425 25.2936
head 1.02147 -3.39454 10.7574
rclavicle -6.52014e-014 1.74931e-014
rhumerus -82.434 -38.7987 27.9342
rradius 26.766
rwrist 44.887
rhand -11.7614 6.96484
rfingers 7.12502
rthumb 14.287 -22.5237
lclavicle -6.52014e-014 1.74931e-014
lhumerus -39.603 14.5969 12.8677
lradius 27.8428
lwrist 26.9359
lhand -8.28012 35.0866
lfingers 7.12502
lthumb 17.6393 64.3064
rfemur -43.2117 16.8142 11.6679
rtibia 12.9019
rfoot -4.72517 -6.15036
rtoes -25.3914
lfemur -42.7598 -6.55066 -8.83015
ltibia 25.2452
lfoot -16.754 20.1351
ltoes -11.7086
729
root -0.158343 17.3937 -0.86795 34.4369 -15.0013 -3.61297
lowerback 18.0333 0.0998301 -9.49583
upperback 1.90722 -2.37788 -6.77782
thorax -7.99544 -0.957779 -1.40661
lowerneck -5.40117 -6.06533 -17.6591
upperneck -5.6193 -7.00156 25.4664
head 1.05936 -3.37518 10.8418
rclavicle 3.81667e-014 1.59028e-014
rhumerus -82.8914 -38.8494 28.7534
rradius 26.5021
rwrist 45.6051
rhand -11.8515 7.02361
rfingers 7.12502
rthumb 14.2001 -22.471
lclavicle 3.81667e-014 1.59028e-014
lhumerus -39.6028 14.7699 12.7799
lradius 28.0356
lwrist 27.2721
lhand -8.52494 34.9079
lfingers 7.12502
lthumb 17.4037 64.1488
rfemur -43.2162 16.7657 11.7682
rtibia 12.9055
rfoot -4.79262 -6.15242
rtoes -24.9048
lfemur -42.8023 -6.57936 -8.70097
ltibia 25.2153
lfoot -16.9202 19.9825
ltoes -10.8083
730
root -0.175008 17.3941 -0.868409 34.461 -14.8029 -3.62825
lowerback 18.0815 0.113299 -9.52979
upperback 1.93774 -2.38554 -6.93692
thorax -7.99499 -0.963749 -1.56004
lowerneck -5.18282 -6.08504 -17.8843
upperneck -5.90023 -7.00604 25.7003
head 0.968792 -3.39712 10.9796
rclavicle 1.11319e-014 6.36111e-014
rhumerus -82.764 -38.5938 28.484
rradius 26.416
rwrist 45.3808
rhand -11.9024 6.84875
rfingers 7.12502
rthumb 14.1511 -22.6493
lclavicle 1.11319e-014 6.36111e-014
lhumerus -39.5151 14.9091 12.7013
lradius 28.1724
lwrist 27.5441
lhand -8.64355 34.9031
lfingers 7.12502
lthumb 17.2895 64.154
rfemur -43.1962 16.6861 11.913
rtibia 12.89
rfoot -4.77622 -6.15573
rtoes -25.0395
lfemur -42.8487 -6.67636 -8.51818
ltibia 25.2134
lfoot -17.0975 19.8391
ltoes -9.68527
731
root -0.192587 17.3938 -0.867751 34.4967 -14.6044 -3.64087
lowerback 18.1398 0.13013 -9.60697
upperback 1.95322 -2.39754 -7.06435
thorax -8.01334 -0.968773 -1.65424
lowerneck -5.02528 -6.12292 -18.0615
upperneck -6.14742 -7.03538 25.8308
head 0.895537 -3.42662 11.0669
rclavicle -9.54166e-015 9.22361e-014
rhumerus -82.5774 -38.3079 28.1279
rradius 26.3944
rwrist 45.111
rhand -11.8689 6.62691
rfingers 7.12502
rthumb 14.1834 -22.8689
lclavicle -9.54166e-015 9.22361e-014
lhumerus -39.4399 15.0709 12.6308
lradius 28.2191
lwrist 27.6424
lhand -8.56149 34.9551
lfingers 7.12502
lthumb 17.3685 64.1991
rfemur -43.1711 16.6216 12.054
rtibia 12.8491
rfoot -4.75038 -6.19036
rtoes -25.1747
lfemur -42.9175 -6.78447 -8.33353
ltibia 25.2397
lfoot -17.3364 19.6825
ltoes -8.11251
732
root -0.210539 17.3921 -0.86925 34.5654 -14.3441 -3.73581
lowerback 18.2185 0.157418 -9.56984
upperback 1.94815 -2.3771 -7.17255
thorax -8.0704 -0.960275 -1.79919
lowerneck -5.00829 -6.10594 -18.0497
upperneck -6.2278 -7.00069 25.8295
head 0.86208 -3.41223 11.0689
rclavicle -4.77083e-014 -1.43125e-014
rhumerus -83.3846 -38.4358 29.5924
rradius 26.1069
rwrist 46.3059
rhand -11.6359 6.84729
rfingers 7.12502
rthumb 14.4079 -22.6326
lclavicle -4.77083e-014 -1.43125e-014
lhumerus -39.3043 15.2454 12.5502
lradius 28.2473
lwrist 27.5189
lhand -8.46367 34.7876
lfingers 7.12502
lthumb 17.4627 64.0233
rfemur -43.1442 16.5666 12.3105
rtibia 12.7994
rfoot -4.72332 -6.25377
rtoes -25.1028
lfemur -43.026 -6.87248 -8.0189
ltibia 25.2723
lfoot -17.371 19.619
ltoes -7.99735
733
root -0.226431 17.391 -0.870429 34.6779 -14.0965 -3.84753
lowerback 18.2321 0.172896 -9.51438
upperback 1.95661 -2.35675 -7.27874
thorax -8.07694 -0.954302 -1.95184
lowerneck -5.23598 -6.04502 -17.968
upperneck -6.07211 -6.90893 25.7961
head 0.918363 -3.34785 11.0401
rclavicle -1.27222e-014 1.59028e-015
rhumerus -84.259 -38.6645 31.1502
rradius 25.7818
rwrist 47.618
rhand -11.4789 7.05666
rfingers 7.12502
rthumb 14.5591 -22.4124
lclavicle -1.27222e-014 1.59028e-015
lhumerus -39.1774 15.4489 12.4513
lradius 28.2322
lwrist 27.455
lhand -8.50826 34.5578
lfingers 7.12502
lthumb 17.4197 63.7973
rfemur -43.1708 16.5124 12.5456
rtibia 12.7425
rfoot -4.74376 -6.31059
rtoes -24.8319
lfemur -43.1771 -6.90211 -7.71828
ltibia 25.3028
lfoot -17.2213 19.6259
ltoes -8.81783
734
root -0.244623 17.3892 -0.871688 34.7585 -13.9918 -3.84927
lowerback 18.2398 0.23314 -9.70204
upperback 1.94919 -2.33113 -7.41903
thorax -8.09046 -0.937951 -2.00932
lowerneck -5.26958 -5.99797 -17.959
upperneck -6.07728 -6.83634 25.8582
head 0.909861 -3.30975 11.0666
rclavicle -1.43125e-014 -9.54166e-015
rhumerus -84.5704 -38.648 31.6434
rradius 25.6013
rwrist 48.0864
rhand -11.6086 6.89946
rfingers 7.12502
rthumb 14.4342 -22.5786
lclavicle -1.43125e-014 -9.54166e-015
lhumerus -39.0785 15.5602 12.3459
lradius 28.2733
lwrist 27.4952
lhand -8.24206 34.9351
lfingers 7.12502
lthumb 17.6759 64.1516
rfemur -43.2054 16.4993 12.5933
rtibia 12.6487
rfoot -4.71176 -6.34709
rtoes -24.7349
lfemur -43.2997 -6.92961 -7.5801
ltibia 25.3491
lfoot -17.5488 19.4514
ltoes -7.36498
735
root -0.262733 17.3862 -0.87142 34.8275 -13.8783 -3.86512
lowerback 18.2648 0.297714 -9.8799
upperback 1.94172 -2.29914 -7.5433
thorax -8.11339 -0.918247 -2.05652
lowerneck -5.15309 -5.99564 -18.0595
upperneck -6.27572 -6.81291 25.9437
head 0.839038 -3.30955 11.1255
rclavicle 4.77083e-014 7.95139e-015
rhumerus -84.8955 -38.5948 32.2083
rradius 25.4747
rwrist 48.7022
rhand -11.5212 6.90625
rfingers 7.12502
rthumb 14.5184 -22.5657
lclavicle 4.77083e-014 7.95139e-015
lhumerus -38.971 15.4537 12.3599
lradius 28.4266
lwrist 27.9517
lhand -7.9981 35.6692
lfingers 7.12502
lthumb 17.9107 64.8644
rfemur -43.2438 16.4988 12.6719
rtibia 12.6012
rfoot -4.63711 -6.40026
rtoes -24.8145
lfemur -43.3818 -7.00503 -7.40293
ltibia 25.356
lfoot -17.5959 19.4941
ltoes -7.44663
